<svg width="200" height="200" viewBox="0 0 200 200" xmlns="http://www.w3.org/2000/svg">
  <g fill="none" stroke="#DC143C" stroke-width="1" opacity="0.15">
    <circle cx="100" cy="100" r="80"/>
    <circle cx="100" cy="100" r="70"/>
    <circle cx="100" cy="100" r="60"/>
    <path d="M100 20v160M20 100h160M37 37l126 126M37 163l126-126"/>
    <path d="M100 30c38.66 0 70 31.34 70 70s-31.34 70-70 70-70-31.34-70-70 31.34-70 70-70z"/>
    <path d="M100 40c33.14 0 60 26.86 60 60s-26.86 60-60 60-60-26.86-60-60 26.86-60 60-60z"/>
  </g>
</svg>
